<?xml version="1.0" encoding="UTF-8"?>
<svg width="1440px" height="1024px" viewBox="0 0 1440 1024" version="1.1" xmlns="http://www.w3.org/2000/svg" xmlns:xlink="http://www.w3.org/1999/xlink">
    <title>Group</title>
    <defs>
        <rect id="path-1" x="0" y="0" width="1440" height="1024"></rect>
        <filter id="filter-3">
            <feColorMatrix in="SourceGraphic" type="matrix" values="0 0 0 0 0.000000 0 0 0 0 0.000000 0 0 0 0 0.000000 0 0 0 0.400000 0"></feColorMatrix>
        </filter>
    </defs>
    <g id="Page-1" stroke="none" stroke-width="1" fill="none" fill-rule="evenodd">
        <g id="Group">
            <mask id="mask-2" fill="white">
                <use xlink:href="#path-1"></use>
            </mask>
            <use id="Mask" fill="#1A123D" xlink:href="#path-1"></use>
            <g filter="url(#filter-3)">
                <g mask="url(#mask-2)">
                    <g transform="translate(-167.000000, -112.000000)" fill="#08103F" fill-rule="nonzero">
                        <path d="M301.048794,756.424109 L301.048794,711.617069 C301.048794,708.288021 298.987184,705.306912 295.872385,704.131928 L116.810707,636.585179 C112.676778,635.025753 110.589731,630.410377 112.149157,626.276448 C112.9608,624.124838 114.659086,622.426549 116.810694,621.614902 L295.872398,554.067794 C298.98719,552.892807 301.048794,549.911701 301.048794,546.582658 L301.048794,501.775629 C301.048794,497.357351 297.467072,493.775629 293.048794,493.775629 C292.050277,493.775629 291.060585,493.962559 290.130857,494.32676 L33.4318436,594.883161 C30.3665318,596.083932 28.3497802,599.03992 28.3497802,602.33203 L28.3497802,655.86821 C28.3497802,659.160325 30.3665378,662.116316 33.4318562,663.317084 L290.13087,763.872983 C294.244769,765.484508 298.886143,763.455933 300.497668,759.342033 C300.861865,758.412309 301.048794,757.422622 301.048794,756.424109 Z" id="&lt;" transform="translate(164.699287, 629.099859) rotate(-13.000000) translate(-164.699287, -629.099859) "></path>
                        <path d="M706.046948,1203.27411 L706.046948,1158.46707 C706.046948,1155.13802 703.985338,1152.15691 700.870538,1150.98193 L521.808861,1083.43518 C517.674931,1081.87575 515.587884,1077.26038 517.147311,1073.12645 C517.958954,1070.97484 519.65724,1069.27655 521.808848,1068.4649 L700.870551,1000.91779 C703.985344,999.742807 706.046948,996.761701 706.046948,993.432658 L706.046948,948.625629 C706.046948,944.207351 702.465226,940.625629 698.046948,940.625629 C697.048431,940.625629 696.058739,940.812559 695.129011,941.17676 L438.429997,1041.73316 C435.364685,1042.93393 433.347934,1045.88992 433.347934,1049.18203 L433.347934,1102.71821 C433.347934,1106.01032 435.364691,1108.96632 438.43001,1110.16708 L695.129024,1210.72298 C699.242923,1212.33451 703.884296,1210.30593 705.495821,1206.19203 C705.860019,1205.26231 706.046948,1204.27262 706.046948,1203.27411 Z" id="&lt;-copy" transform="translate(569.697441, 1075.949859) scale(-1, 1) rotate(-13.000000) translate(-569.697441, -1075.949859) "></path>
                        <path d="M657.447135,281.224322 L657.447135,236.417281 C657.447135,233.088237 655.385531,230.107131 652.270737,228.932144 L473.20913,161.385117 C469.075203,159.825684 466.988163,155.210305 468.547596,151.076378 C469.359242,148.924771 471.057529,147.226485 473.209136,146.414841 L652.270731,78.8679842 C655.385528,77.692999 657.447135,74.7118916 657.447135,71.3828452 L657.447135,26.5757985 C657.447135,22.1575205 653.865413,18.5757985 649.447135,18.5757985 C648.448621,18.5757985 647.458931,18.7627276 646.529206,19.1269267 L389.830328,119.682973 C386.765013,120.883742 384.748257,123.839732 384.748257,127.131844 L384.748257,180.668038 C384.748257,183.960149 386.76501,186.916137 389.830322,188.116908 L646.5292,288.673192 C650.643097,290.284723 655.284473,288.256154 656.896004,284.142257 C657.260205,283.21253 657.447135,282.222838 657.447135,281.224322 Z" id="&lt;-copy-2" transform="translate(521.097696, 153.900065) rotate(6.000000) translate(-521.097696, -153.900065) "></path>
                        <path d="M1082.6952,798.274322 L1082.6952,753.467281 C1082.6952,750.138237 1080.6336,747.157131 1077.51881,745.982144 L898.457199,678.435117 C894.323273,676.875684 892.236232,672.260305 893.795665,668.126378 C894.607311,665.974771 896.305598,664.276485 898.457205,663.464841 L1077.5188,595.917984 C1080.6336,594.742999 1082.6952,591.761892 1082.6952,588.432845 L1082.6952,543.625798 C1082.6952,539.207521 1079.11348,535.625798 1074.6952,535.625798 C1073.69669,535.625798 1072.707,535.812728 1071.77728,536.176927 L815.078398,636.732973 C812.013082,637.933742 809.996327,640.889732 809.996327,644.181844 L809.996327,697.718038 C809.996327,701.010149 812.013079,703.966137 815.078392,705.166908 L1071.77727,805.723192 C1075.89117,807.334723 1080.53254,805.306154 1082.14407,801.192257 C1082.50827,800.26253 1082.6952,799.272838 1082.6952,798.274322 Z" id="&lt;-copy-3" transform="translate(946.345765, 670.950065) scale(-1, 1) rotate(6.000000) translate(-946.345765, -670.950065) "></path>
                        <path d="M1363.494,323.074359 L1363.494,278.267326 C1363.494,274.938282 1361.43239,271.957177 1358.3176,270.78219 L1179.25592,203.235103 C1175.122,201.67567 1173.03496,197.06029 1174.59439,192.926363 C1175.40604,190.774755 1177.10433,189.07647 1179.25594,188.264826 L1358.31759,120.718046 C1361.43239,119.543062 1363.494,116.561954 1363.494,113.232906 L1363.494,68.4258631 C1363.494,64.0075851 1359.91227,60.4258631 1355.494,60.4258631 C1354.49548,60.4258631 1353.5058,60.6127917 1352.57607,60.9769899 L1095.8771,161.532931 C1092.81178,162.733699 1090.79502,165.68969 1090.79502,168.981804 L1090.79502,222.517989 C1090.79502,225.810099 1092.81178,228.766087 1095.87709,229.966858 L1352.57606,330.523228 C1356.68996,332.13476 1361.33133,330.106192 1362.94287,325.992295 C1363.30707,325.062568 1363.494,324.072876 1363.494,323.074359 Z" id="&lt;-copy-6" transform="translate(1227.144510, 195.750120) scale(-1, 1) rotate(11.000000) translate(-1227.144510, -195.750120) "></path>
                        <path d="M1857.59191,683.524009 L1857.59191,638.716982 C1857.59191,635.387932 1855.5303,632.406822 1852.4155,631.231839 L1673.35372,563.685197 C1669.21979,562.125774 1667.13274,557.510399 1668.69217,553.376468 C1669.50381,551.224857 1671.2021,549.526566 1673.35371,548.714918 L1852.41552,481.167749 C1855.53031,479.992761 1857.59191,477.011656 1857.59191,473.682613 L1857.59191,428.875603 C1857.59191,424.457325 1854.01019,420.875603 1849.59191,420.875603 C1848.59339,420.875603 1847.6037,421.062533 1846.67397,421.426735 L1589.9748,521.983226 C1586.90949,523.183998 1584.89274,526.139985 1584.89274,529.432095 L1584.89274,582.968252 C1584.89274,586.260369 1586.9095,589.216362 1589.97482,590.417128 L1846.67399,690.972885 C1850.78789,692.584407 1855.42927,690.555828 1857.04079,686.441928 C1857.40498,685.512205 1857.59191,684.522519 1857.59191,683.524009 Z" id="&lt;-copy-4" transform="translate(1721.242325, 556.199790) scale(-1, 1) rotate(-20.000000) translate(-1721.242325, -556.199790) "></path>
                        <path d="M1414.79372,1097.97429 L1414.79372,1053.16724 C1414.79372,1049.8382 1412.73211,1046.85709 1409.61732,1045.6821 L1230.55576,978.13513 C1226.42183,976.575698 1224.33479,971.960319 1225.89422,967.826392 C1226.70587,965.674785 1228.40416,963.9765 1230.55576,963.164855 L1409.61732,895.617938 C1412.73211,894.442952 1414.79372,891.461845 1414.79372,888.1328 L1414.79372,843.325753 C1414.79372,838.907475 1411.212,835.325753 1406.79372,835.325753 C1405.7952,835.325753 1404.80551,835.512683 1403.87579,835.876882 L1147.17697,936.43301 C1144.11166,937.63378 1142.0949,940.589769 1142.0949,943.881881 L1142.0949,997.418079 C1142.0949,1000.71019 1144.11166,1003.66618 1147.17697,1004.86695 L1403.87578,1105.42316 C1407.98968,1107.03469 1412.63106,1105.00612 1414.24259,1100.89222 C1414.60679,1099.96249 1414.79372,1098.9728 1414.79372,1097.97429 Z" id="&lt;-copy-5" transform="translate(1278.444311, 970.650021) rotate(2.000000) translate(-1278.444311, -970.650021) "></path>
                        <path d="M1193.39474,1372.02435 L1193.39474,1327.21732 C1193.39474,1323.88827 1191.33314,1320.90717 1188.21835,1319.73218 L1009.15669,1252.18511 C1005.02276,1250.62567 1002.93572,1246.01029 1004.49515,1241.87637 C1005.3068,1239.72476 1007.00509,1238.02647 1009.1567,1237.21483 L1188.21834,1169.66803 C1191.33314,1168.49305 1193.39474,1165.51194 1193.39474,1162.18289 L1193.39474,1117.37585 C1193.39474,1112.95757 1189.81302,1109.37585 1185.39474,1109.37585 C1184.39623,1109.37585 1183.40654,1109.56278 1182.47682,1109.92698 L925.777866,1210.48294 C922.712549,1211.68371 920.695792,1214.6397 920.695792,1217.93181 L920.695792,1271.468 C920.695792,1274.76011 922.712544,1277.7161 925.777856,1278.91687 L1182.47681,1379.47322 C1186.5907,1381.08475 1191.23208,1379.05619 1192.84361,1374.94229 C1193.20781,1374.01256 1193.39474,1373.02287 1193.39474,1372.02435 Z" id="&lt;-copy-7" transform="translate(1057.045268, 1244.700109) scale(-1, 1) rotate(10.000000) translate(-1057.045268, -1244.700109) "></path>
                    </g>
                </g>
            </g>
        </g>
    </g>
</svg>